STARTFONT 2.1
COMMENT
COMMENT Converted from OpenType font "Q:\font stuff\winfont\76London.otf" by "otf2bdf 3.0".
COMMENT
FONT -FreeType-76London-Medium-R-Normal--28-280-72-72-P-117-ISO10646-1
SIZE 28 72 72
FONTBOUNDINGBOX 30 34 -1 -6
STARTPROPERTIES 19
FOUNDRY "FreeType"
FAMILY_NAME "76London"
WEIGHT_NAME "Medium"
SLANT "R"
SETWIDTH_NAME "Normal"
ADD_STYLE_NAME ""
PIXEL_SIZE 28
POINT_SIZE 280
RESOLUTION_X 72
RESOLUTION_Y 72
SPACING "P"
AVERAGE_WIDTH 117
CHARSET_REGISTRY "ISO10646"
CHARSET_ENCODING "1"
FONT_ASCENT 27
FONT_DESCENT 5
COPYRIGHT "Copyright © 1997 [T-26] 1110 N. Milwaukee Ave. IL 60622. T0279 ID#5092439 Designer: Peter Bruhn"
_OTF_FONTFILE "Q:\font stuff\winfont\76London.otf"
_OTF_PSNAME "76London"
ENDPROPERTIES
CHARS 211
STARTCHAR 0020
ENCODING 32
SWIDTH 285 0
DWIDTH 8 0
BBX 0 0 0 0
BITMAP
ENDCHAR
STARTCHAR 0021
ENCODING 33
SWIDTH 285 0
DWIDTH 8 0
BBX 4 22 2 0
BITMAP
F0
F0
F0
F0
F0
F0
F0
F0
F0
F0
F0
F0
F0
F0
F0
F0
F0
00
F0
F0
F0
F0
ENDCHAR
STARTCHAR 0022
ENCODING 34
SWIDTH 428 0
DWIDTH 12 0
BBX 9 7 2 15
BITMAP
F780
F780
F780
F780
6300
6300
6300
ENDCHAR
STARTCHAR 0023
ENCODING 35
SWIDTH 607 0
DWIDTH 17 0
BBX 16 22 0 -1
BITMAP
018E
018C
038C
039C
031C
031C
3FFF
3FFF
3FFF
0638
0E30
0E30
0C70
7FFC
FFFC
FFFC
1CE0
18E0
18E0
38C0
38C0
31C0
ENDCHAR
STARTCHAR 0024
ENCODING 36
SWIDTH 571 0
DWIDTH 16 0
BBX 13 22 2 0
BITMAP
0700
07F0
7FF0
7FF0
F800
F000
F000
F000
F800
FFE0
7FF0
3FF8
00F8
0078
0078
0078
0078
7FF8
7FF0
7FE0
0700
0700
ENDCHAR
STARTCHAR 0025
ENCODING 37
SWIDTH 714 0
DWIDTH 20 0
BBX 18 22 1 0
BITMAP
7F0300
F78600
E38400
E38C00
E39800
E39800
E3B000
E3B000
E3E000
7F6000
00C000
00C000
01BF80
01F1C0
0371C0
0371C0
0671C0
0671C0
0C71C0
0871C0
187BC0
303F80
ENDCHAR
STARTCHAR 0026
ENCODING 38
SWIDTH 678 0
DWIDTH 19 0
BBX 17 22 1 -1
BITMAP
1FF000
7FF000
FFF000
F80000
F00000
F00000
F00000
F00000
F00000
FFFF80
3FFF80
7FFF80
F83C00
F03C00
F03C00
F03C00
F03C00
F03C00
F03C00
FFFC00
7FF800
3FF000
ENDCHAR
STARTCHAR 0027
ENCODING 39
SWIDTH 285 0
DWIDTH 8 0
BBX 4 7 2 15
BITMAP
F0
F0
F0
F0
60
60
60
ENDCHAR
STARTCHAR 0028
ENCODING 40
SWIDTH 285 0
DWIDTH 8 0
BBX 7 22 1 0
BITMAP
0E
38
30
70
70
F0
F0
F0
F0
F0
F0
F0
F0
F0
F0
F0
F0
70
70
70
38
0E
ENDCHAR
STARTCHAR 0029
ENCODING 41
SWIDTH 285 0
DWIDTH 8 0
BBX 7 22 0 0
BITMAP
E0
38
1C
1C
1E
1E
1E
1E
1E
1E
1E
1E
1E
1E
1E
1E
1E
1C
1C
1C
38
E0
ENDCHAR
STARTCHAR 002A
ENCODING 42
SWIDTH 607 0
DWIDTH 17 0
BBX 10 10 3 11
BITMAP
0E00
0E00
0E00
6EC0
7FC0
FFC0
0F00
1F80
3B80
3180
ENDCHAR
STARTCHAR 002B
ENCODING 43
SWIDTH 607 0
DWIDTH 17 0
BBX 14 14 1 1
BITMAP
0780
0780
0780
0780
0780
FFFC
FFFC
FFFC
FFFC
0780
0780
0780
0780
0780
ENDCHAR
STARTCHAR 002C
ENCODING 44
SWIDTH 285 0
DWIDTH 8 0
BBX 4 6 2 -2
BITMAP
F0
F0
F0
F0
60
E0
ENDCHAR
STARTCHAR 002D
ENCODING 45
SWIDTH 357 0
DWIDTH 10 0
BBX 7 4 2 6
BITMAP
FE
FE
FE
FE
ENDCHAR
STARTCHAR 002E
ENCODING 46
SWIDTH 285 0
DWIDTH 8 0
BBX 4 4 2 1
BITMAP
F0
F0
F0
F0
ENDCHAR
STARTCHAR 002F
ENCODING 47
SWIDTH 285 0
DWIDTH 8 0
BBX 8 22 0 0
BITMAP
03
06
06
06
06
0C
0C
0C
0C
18
18
18
18
30
30
30
30
60
60
60
60
C0
ENDCHAR
STARTCHAR 0030
ENCODING 48
SWIDTH 607 0
DWIDTH 17 0
BBX 14 22 1 0
BITMAP
1FE0
7FF8
7FF8
F87C
F03C
F03C
F03C
F03C
F03C
F03C
F03C
F03C
F03C
F03C
F03C
F03C
F03C
F03C
F87C
7FF8
7FF8
1FE0
ENDCHAR
STARTCHAR 0031
ENCODING 49
SWIDTH 357 0
DWIDTH 10 0
BBX 6 22 2 0
BITMAP
F0
F8
FC
7C
3C
3C
3C
3C
3C
3C
3C
3C
3C
3C
3C
3C
3C
3C
3C
3C
3C
3C
ENDCHAR
STARTCHAR 0032
ENCODING 50
SWIDTH 607 0
DWIDTH 17 0
BBX 13 22 2 0
BITMAP
7FE0
7FF0
7FF8
00F8
0078
0078
0078
0078
00F8
3FF8
7FF0
FFE0
F800
F000
F000
F000
F000
F000
F000
FFF8
FFF8
FFF8
ENDCHAR
STARTCHAR 0033
ENCODING 51
SWIDTH 500 0
DWIDTH 14 0
BBX 12 22 1 0
BITMAP
FFC0
FFE0
FFE0
01F0
00F0
00F0
00F0
00F0
00F0
1FF0
1FF0
1FF0
00F0
00F0
00F0
00F0
00F0
00F0
01F0
FFF0
FFE0
FFC0
ENDCHAR
STARTCHAR 0034
ENCODING 52
SWIDTH 607 0
DWIDTH 17 0
BBX 13 22 2 0
BITMAP
F078
F078
F078
F078
F078
F078
F078
F078
F878
FFF8
7FF8
3FF8
0078
0078
0078
0078
0078
0078
0078
0078
0078
0078
ENDCHAR
STARTCHAR 0035
ENCODING 53
SWIDTH 607 0
DWIDTH 17 0
BBX 13 22 2 0
BITMAP
1FE0
7FE0
FFE0
F800
F000
F000
F000
F000
F000
FFE0
FFF0
FFF8
00F8
0078
0078
0078
0078
0078
00F8
FFF8
FFF0
FFE0
ENDCHAR
STARTCHAR 0036
ENCODING 54
SWIDTH 607 0
DWIDTH 17 0
BBX 13 22 2 0
BITMAP
3FE0
7FE0
7FE0
F800
F000
F000
F000
F000
F000
F7E0
FFF0
FFF8
F8F8
F078
F078
F078
F078
F078
F078
7FF8
7FF8
1FF0
ENDCHAR
STARTCHAR 0037
ENCODING 55
SWIDTH 535 0
DWIDTH 15 0
BBX 12 22 0 0
BITMAP
FFC0
FFE0
FFF0
01F0
00F0
00F0
00F0
00F0
00F0
00F0
00F0
00F0
00F0
00F0
00F0
00F0
00F0
00F0
00F0
00F0
00F0
00F0
ENDCHAR
STARTCHAR 0038
ENCODING 56
SWIDTH 571 0
DWIDTH 16 0
BBX 14 22 1 0
BITMAP
3FF0
7FF8
FFFC
F87C
F03C
F03C
F03C
F03C
F03C
F87C
7FF8
7FF8
F87C
F03C
F03C
F03C
F03C
F03C
F87C
FFFC
7FF8
3FF0
ENDCHAR
STARTCHAR 0039
ENCODING 57
SWIDTH 607 0
DWIDTH 17 0
BBX 13 22 2 0
BITMAP
3FC0
7FF0
FFF0
F078
F078
F078
F078
F078
F078
F078
F8F8
FFF8
7FF8
3E78
0078
0078
0078
0078
00F8
3FF8
3FF0
3FE0
ENDCHAR
STARTCHAR 003A
ENCODING 58
SWIDTH 285 0
DWIDTH 8 0
BBX 4 16 2 0
BITMAP
F0
F0
F0
F0
00
00
00
00
00
00
00
00
F0
F0
F0
F0
ENDCHAR
STARTCHAR 003B
ENCODING 59
SWIDTH 285 0
DWIDTH 8 0
BBX 4 18 2 -3
BITMAP
F0
F0
F0
F0
00
00
00
00
00
00
00
00
F0
F0
F0
F0
60
E0
ENDCHAR
STARTCHAR 003C
ENCODING 60
SWIDTH 250 0
DWIDTH 7 0
BBX 5 11 1 2
BITMAP
38
30
70
60
E0
C0
E0
60
70
30
38
ENDCHAR
STARTCHAR 003D
ENCODING 61
SWIDTH 607 0
DWIDTH 17 0
BBX 15 11 1 2
BITMAP
FFFC
FFFE
FFFE
FFFC
0000
0000
0000
FFFC
FFFE
FFFE
FFFC
ENDCHAR
STARTCHAR 003E
ENCODING 62
SWIDTH 250 0
DWIDTH 7 0
BBX 4 11 1 2
BITMAP
C0
C0
60
60
30
30
30
70
60
E0
C0
ENDCHAR
STARTCHAR 003F
ENCODING 63
SWIDTH 607 0
DWIDTH 17 0
BBX 11 22 4 0
BITMAP
FF80
FFC0
FFE0
03E0
01E0
01E0
01E0
01E0
03E0
3FE0
7FC0
FF80
F800
F000
F000
F000
F000
0000
F000
F000
F000
F000
ENDCHAR
STARTCHAR 0040
ENCODING 64
SWIDTH 892 0
DWIDTH 25 0
BBX 21 22 2 0
BITMAP
07FF00
3FFFE0
7000F0
600030
C00018
C1FC18
C3FE18
C38E18
C38E18
C38E18
C3FFF8
C3FFF8
C38E00
C38E00
C38E00
C38E00
C38E00
C00000
600000
700000
3E0000
0FFE00
ENDCHAR
STARTCHAR 0041
ENCODING 65
SWIDTH 607 0
DWIDTH 17 0
BBX 13 22 2 0
BITMAP
1FC0
7FF0
7FF0
F8F8
F078
F078
F078
F078
F078
F078
FFF8
FFF8
FFF8
F078
F078
F078
F078
F078
F078
F078
F078
F078
ENDCHAR
STARTCHAR 0042
ENCODING 66
SWIDTH 571 0
DWIDTH 16 0
BBX 13 22 2 0
BITMAP
1FE0
7FF0
7FF8
F8F8
F078
F078
F078
F078
F0F8
FFF0
FFC0
FFF0
F0F8
F078
F078
F078
F078
F078
F0F8
FFF8
FFF0
FFE0
ENDCHAR
STARTCHAR 0043
ENCODING 67
SWIDTH 500 0
DWIDTH 14 0
BBX 12 22 1 0
BITMAP
3FF0
7FF0
7FF0
F800
F000
F000
F000
F000
F000
F000
F000
F000
F000
F000
F000
F000
F000
F000
F800
FFF0
7FF0
3FF0
ENDCHAR
STARTCHAR 0044
ENCODING 68
SWIDTH 571 0
DWIDTH 16 0
BBX 13 22 2 0
BITMAP
FFE0
FFF0
FFF0
F0F8
F078
F078
F078
F078
F078
F078
F078
F078
F078
F078
F078
F078
F078
F078
F0F8
FFF8
FFF0
FFE0
ENDCHAR
STARTCHAR 0045
ENCODING 69
SWIDTH 500 0
DWIDTH 14 0
BBX 12 22 1 0
BITMAP
3FF0
7FF0
7FF0
F800
F000
F000
F000
F000
F000
FF80
FF80
FF80
F000
F000
F000
F000
F000
F000
F800
FFF0
7FF0
3FF0
ENDCHAR
STARTCHAR 0046
ENCODING 70
SWIDTH 500 0
DWIDTH 14 0
BBX 12 22 1 0
BITMAP
3FF0
7FF0
7FF0
F800
F000
F000
F000
F000
F000
FF80
FF80
FF80
F000
F000
F000
F000
F000
F000
F000
F000
F000
F000
ENDCHAR
STARTCHAR 0047
ENCODING 71
SWIDTH 571 0
DWIDTH 16 0
BBX 14 22 1 0
BITMAP
3FF0
7FF0
7FF0
F800
F000
F000
F000
F000
F000
F000
F1FC
F1FC
F1FC
F03C
F03C
F03C
F03C
F03C
F87C
FFFC
7FDC
3F84
ENDCHAR
STARTCHAR 0048
ENCODING 72
SWIDTH 607 0
DWIDTH 17 0
BBX 13 22 2 0
BITMAP
F078
F078
F078
F078
F078
F078
F078
F078
F078
FFF8
FFF8
FFF8
F078
F078
F078
F078
F078
F078
F078
F078
F078
F078
ENDCHAR
STARTCHAR 0049
ENCODING 73
SWIDTH 285 0
DWIDTH 8 0
BBX 4 22 2 0
BITMAP
F0
F0
F0
F0
F0
F0
F0
F0
F0
F0
F0
F0
F0
F0
F0
F0
F0
F0
F0
F0
F0
F0
ENDCHAR
STARTCHAR 004A
ENCODING 74
SWIDTH 535 0
DWIDTH 15 0
BBX 12 22 0 0
BITMAP
00F0
00F0
00F0
00F0
00F0
00F0
00F0
00F0
00F0
00F0
00F0
00F0
00F0
00F0
00F0
00F0
00F0
00F0
01F0
FFF0
FFE0
FFC0
ENDCHAR
STARTCHAR 004B
ENCODING 75
SWIDTH 571 0
DWIDTH 16 0
BBX 13 22 2 0
BITMAP
F078
F0F0
F0F0
F1E0
F1E0
F3C0
F3C0
F780
F780
FF00
FFE0
FFF0
FFF8
F0F8
F078
F078
F078
F078
F078
F078
F078
F078
ENDCHAR
STARTCHAR 004C
ENCODING 76
SWIDTH 500 0
DWIDTH 14 0
BBX 12 22 2 0
BITMAP
F000
F000
F000
F000
F000
F000
F000
F000
F000
F000
F000
F000
F000
F000
F000
F000
F000
F000
F800
FFF0
7FF0
3FF0
ENDCHAR
STARTCHAR 004D
ENCODING 77
SWIDTH 928 0
DWIDTH 26 0
BBX 22 22 2 0
BITMAP
1FFFE0
7FFFF8
7FFFF8
F8FC7C
F0783C
F0783C
F0783C
F0783C
F0783C
F0783C
F0783C
F0783C
F0783C
F0783C
F0783C
F0783C
F0783C
F0783C
F0783C
F0783C
F0783C
F0783C
ENDCHAR
STARTCHAR 004E
ENCODING 78
SWIDTH 607 0
DWIDTH 17 0
BBX 13 22 2 0
BITMAP
1FC0
7FF0
7FF0
F8F8
F078
F078
F078
F078
F078
F078
F078
F078
F078
F078
F078
F078
F078
F078
F078
F078
F078
F078
ENDCHAR
STARTCHAR 004F
ENCODING 79
SWIDTH 607 0
DWIDTH 17 0
BBX 14 22 1 0
BITMAP
1FE0
7FF8
7FF8
F87C
F03C
F03C
F03C
F03C
F03C
F03C
F03C
F03C
F03C
F03C
F03C
F03C
F03C
F03C
F87C
7FF8
7FF8
1FE0
ENDCHAR
STARTCHAR 0050
ENCODING 80
SWIDTH 571 0
DWIDTH 16 0
BBX 13 22 2 0
BITMAP
1FC0
7FF0
7FF0
F8F8
F078
F078
F078
F078
F078
F078
F0F8
FFF8
FFF0
FFE0
F000
F000
F000
F000
F000
F000
F000
F000
ENDCHAR
STARTCHAR 0051
ENCODING 81
SWIDTH 607 0
DWIDTH 17 0
BBX 14 25 1 -3
BITMAP
1FE0
7FF8
7FF8
F87C
F03C
F03C
F03C
F03C
F03C
F03C
F03C
F03C
F03C
F03C
F03C
F03C
F03C
F03C
F03C
F87C
7FF8
7FF0
0FC0
0780
0780
ENDCHAR
STARTCHAR 0052
ENCODING 82
SWIDTH 571 0
DWIDTH 16 0
BBX 13 22 2 0
BITMAP
1FE0
7FF0
7FF8
F8F8
F078
F078
F078
F078
F078
F0F8
FFF0
FFE0
FFF0
F0F8
F078
F078
F078
F078
F078
F078
F078
F078
ENDCHAR
STARTCHAR 0053
ENCODING 83
SWIDTH 571 0
DWIDTH 16 0
BBX 12 22 2 0
BITMAP
3FE0
7FE0
FFE0
F800
F000
F000
F000
F000
F800
FFC0
7FE0
3FF0
01F0
00F0
00F0
00F0
00F0
00F0
01F0
7FF0
7FE0
7FC0
ENDCHAR
STARTCHAR 0054
ENCODING 84
SWIDTH 428 0
DWIDTH 12 0
BBX 12 22 0 0
BITMAP
FFF0
FFF0
FFF0
0F00
0F00
0F00
0F00
0F00
0F00
0F00
0F00
0F00
0F00
0F00
0F00
0F00
0F00
0F00
0F00
0F00
0F00
0F00
ENDCHAR
STARTCHAR 0055
ENCODING 85
SWIDTH 607 0
DWIDTH 17 0
BBX 13 22 2 0
BITMAP
F078
F078
F078
F078
F078
F078
F078
F078
F078
F078
F078
F078
F078
F078
F078
F078
F078
F078
F8F8
FFF8
7FF0
3FE0
ENDCHAR
STARTCHAR 0056
ENCODING 86
SWIDTH 535 0
DWIDTH 15 0
BBX 13 22 1 0
BITMAP
F078
F070
F070
F0F0
78F0
78F0
78E0
78E0
78E0
39E0
3DE0
3DC0
3DC0
1DC0
1DC0
1FC0
1F80
1F80
0F80
0F80
0F80
0F00
ENDCHAR
STARTCHAR 0057
ENCODING 87
SWIDTH 857 0
DWIDTH 24 0
BBX 22 22 1 0
BITMAP
F0783C
F0783C
F0783C
F0FC38
78FC78
78FC78
78FC78
78FC78
78FE70
3DFE70
3DFEF0
3DDEF0
3DCEE0
1DCFE0
1FCFE0
1FCFE0
1F8FE0
1F87C0
0F87C0
0F87C0
0F87C0
0F07C0
ENDCHAR
STARTCHAR 0058
ENCODING 88
SWIDTH 571 0
DWIDTH 16 0
BBX 13 22 1 0
BITMAP
F078
7878
78F0
3CF0
3CE0
1DE0
1FE0
1FC0
0FC0
0F80
0780
0780
0F80
0FC0
1FC0
1FE0
1DE0
3CE0
3CF0
78F0
7878
F078
ENDCHAR
STARTCHAR 0059
ENCODING 89
SWIDTH 571 0
DWIDTH 16 0
BBX 13 22 1 0
BITMAP
F078
F078
F078
F078
F078
F078
F078
F078
F078
F078
F8F8
FFF8
7FF0
3FE0
0780
0780
0780
0780
0780
0780
0780
0780
ENDCHAR
STARTCHAR 005A
ENCODING 90
SWIDTH 464 0
DWIDTH 13 0
BBX 11 22 1 0
BITMAP
FFE0
FFE0
FFE0
01E0
01E0
03C0
03C0
0780
0780
0F00
0F00
1E00
1E00
3C00
3C00
7800
7800
F000
F000
FFE0
FFE0
FFE0
ENDCHAR
STARTCHAR 005B
ENCODING 91
SWIDTH 285 0
DWIDTH 8 0
BBX 6 22 2 0
BITMAP
FC
F0
F0
F0
F0
F0
F0
F0
F0
F0
F0
F0
F0
F0
F0
F0
F0
F0
F0
F0
F0
FC
ENDCHAR
STARTCHAR 005C
ENCODING 92
SWIDTH 285 0
DWIDTH 8 0
BBX 8 22 0 0
BITMAP
C0
60
60
60
60
30
30
30
30
18
18
18
18
0C
0C
0C
0C
06
06
06
06
03
ENDCHAR
STARTCHAR 005D
ENCODING 93
SWIDTH 285 0
DWIDTH 8 0
BBX 6 22 1 0
BITMAP
FC
3C
3C
3C
3C
3C
3C
3C
3C
3C
3C
3C
3C
3C
3C
3C
3C
3C
3C
3C
3C
FC
ENDCHAR
STARTCHAR 005E
ENCODING 94
SWIDTH 357 0
DWIDTH 10 0
BBX 9 5 0 17
BITMAP
1E00
3E00
3F00
7380
E180
ENDCHAR
STARTCHAR 005F
ENCODING 95
SWIDTH 571 0
DWIDTH 16 0
BBX 16 1 0 -3
BITMAP
FFFF
ENDCHAR
STARTCHAR 0060
ENCODING 96
SWIDTH 250 0
DWIDTH 7 0
BBX 5 5 1 17
BITMAP
E0
F0
70
70
38
ENDCHAR
STARTCHAR 0061
ENCODING 97
SWIDTH 607 0
DWIDTH 17 0
BBX 13 16 2 0
BITMAP
3FE0
7FF0
F8F8
F078
F078
F078
F078
FFF8
FFF8
F078
F078
F078
F078
F078
F078
F078
ENDCHAR
STARTCHAR 0062
ENCODING 98
SWIDTH 571 0
DWIDTH 16 0
BBX 13 16 2 0
BITMAP
3FE0
7FF0
F8F8
F078
F078
F078
F0F8
FFF0
FFF0
F0F8
F078
F078
F078
F0F8
FFF8
FFE0
ENDCHAR
STARTCHAR 0063
ENCODING 99
SWIDTH 500 0
DWIDTH 14 0
BBX 12 16 1 0
BITMAP
3FF0
7FF0
FC00
F000
F000
F000
F000
F000
F000
F000
F000
F000
F000
F800
7FF0
7FF0
ENDCHAR
STARTCHAR 0064
ENCODING 100
SWIDTH 571 0
DWIDTH 16 0
BBX 13 16 2 0
BITMAP
FFE0
FFF0
F1F8
F078
F078
F078
F078
F078
F078
F078
F078
F078
F078
F0F8
FFF0
FFF0
ENDCHAR
STARTCHAR 0065
ENCODING 101
SWIDTH 500 0
DWIDTH 14 0
BBX 12 16 1 0
BITMAP
3FF0
7FF0
FC00
F000
F000
F000
F000
FF80
FF80
F000
F000
F000
F000
F800
7FF0
7FF0
ENDCHAR
STARTCHAR 0066
ENCODING 102
SWIDTH 500 0
DWIDTH 14 0
BBX 12 16 1 0
BITMAP
3FF0
7FF0
FC00
F000
F000
F000
F000
FF80
FF80
F000
F000
F000
F000
F000
F000
F000
ENDCHAR
STARTCHAR 0067
ENCODING 103
SWIDTH 571 0
DWIDTH 16 0
BBX 14 16 1 0
BITMAP
3FF0
7FF0
FC00
F000
F000
F000
F000
F1FC
F1FC
F03C
F03C
F03C
F03C
F8FC
7FFC
3F84
ENDCHAR
STARTCHAR 0068
ENCODING 104
SWIDTH 607 0
DWIDTH 17 0
BBX 13 16 2 0
BITMAP
F078
F078
F078
F078
F078
F078
F078
FFF8
FFF8
F078
F078
F078
F078
F078
F078
F078
ENDCHAR
STARTCHAR 0069
ENCODING 105
SWIDTH 285 0
DWIDTH 8 0
BBX 4 16 2 0
BITMAP
F0
F0
F0
F0
F0
F0
F0
F0
F0
F0
F0
F0
F0
F0
F0
F0
ENDCHAR
STARTCHAR 006A
ENCODING 106
SWIDTH 535 0
DWIDTH 15 0
BBX 12 16 0 0
BITMAP
00F0
00F0
00F0
00F0
00F0
00F0
00F0
00F0
00F0
00F0
00F0
00F0
00F0
01F0
FFE0
FFE0
ENDCHAR
STARTCHAR 006B
ENCODING 107
SWIDTH 571 0
DWIDTH 16 0
BBX 13 16 2 0
BITMAP
F078
F0F0
F1E0
F1C0
F3C0
F780
FF00
FFE0
FFF0
F0F8
F078
F078
F078
F078
F078
F078
ENDCHAR
STARTCHAR 006C
ENCODING 108
SWIDTH 500 0
DWIDTH 14 0
BBX 12 16 2 0
BITMAP
F000
F000
F000
F000
F000
F000
F000
F000
F000
F000
F000
F000
F000
F800
7FF0
7FF0
ENDCHAR
STARTCHAR 006D
ENCODING 109
SWIDTH 928 0
DWIDTH 26 0
BBX 22 16 2 0
BITMAP
3FFFF0
7FFFF8
F8FC7C
F0783C
F0783C
F0783C
F0783C
F0783C
F0783C
F0783C
F0783C
F0783C
F0783C
F0783C
F0783C
F0783C
ENDCHAR
STARTCHAR 006E
ENCODING 110
SWIDTH 607 0
DWIDTH 17 0
BBX 13 16 2 0
BITMAP
3FE0
7FF0
F8F8
F078
F078
F078
F078
F078
F078
F078
F078
F078
F078
F078
F078
F078
ENDCHAR
STARTCHAR 006F
ENCODING 111
SWIDTH 607 0
DWIDTH 17 0
BBX 14 16 1 0
BITMAP
3FF0
7FF8
F87C
F03C
F03C
F03C
F03C
F03C
F03C
F03C
F03C
F03C
F03C
F87C
7FF8
3FF0
ENDCHAR
STARTCHAR 0070
ENCODING 112
SWIDTH 571 0
DWIDTH 16 0
BBX 13 16 2 0
BITMAP
3FE0
7FF0
F8F8
F078
F078
F078
F078
FFF8
FFF0
FFE0
F000
F000
F000
F000
F000
F000
ENDCHAR
STARTCHAR 0071
ENCODING 113
SWIDTH 607 0
DWIDTH 17 0
BBX 14 18 1 -2
BITMAP
3FF0
7FF8
F87C
F03C
F03C
F03C
F03C
F03C
F03C
F03C
F03C
F03C
F03C
F87C
7FF8
3FF0
0780
0780
ENDCHAR
STARTCHAR 0072
ENCODING 114
SWIDTH 571 0
DWIDTH 16 0
BBX 13 16 2 0
BITMAP
3FE0
7FF0
F8F8
F078
F078
F078
F0F8
FFF0
FFF0
F0F8
F078
F078
F078
F078
F078
F078
ENDCHAR
STARTCHAR 0073
ENCODING 115
SWIDTH 571 0
DWIDTH 16 0
BBX 12 16 2 0
BITMAP
3FE0
7FE0
F800
F000
F000
F000
F800
7FE0
3FF0
01F0
00F0
00F0
00F0
01F0
7FE0
7FC0
ENDCHAR
STARTCHAR 0074
ENCODING 116
SWIDTH 428 0
DWIDTH 12 0
BBX 12 16 0 0
BITMAP
FFF0
FFF0
0F00
0F00
0F00
0F00
0F00
0F00
0F00
0F00
0F00
0F00
0F00
0F00
0F00
0F00
ENDCHAR
STARTCHAR 0075
ENCODING 117
SWIDTH 607 0
DWIDTH 17 0
BBX 13 16 2 0
BITMAP
F078
F078
F078
F078
F078
F078
F078
F078
F078
F078
F078
F078
F078
F8F8
7FF0
3FE0
ENDCHAR
STARTCHAR 0076
ENCODING 118
SWIDTH 535 0
DWIDTH 15 0
BBX 13 16 1 0
BITMAP
F078
F070
F0F0
78F0
78F0
78E0
39E0
3DE0
3DC0
3DC0
1DC0
1FC0
1F80
0F80
0F80
0F00
ENDCHAR
STARTCHAR 0077
ENCODING 119
SWIDTH 857 0
DWIDTH 24 0
BBX 22 16 1 0
BITMAP
F0783C
F0783C
F0FC38
78FC78
78FC78
78FC70
38FE70
3DFEF0
3DDEF0
3DCEE0
1FCFE0
1FCFE0
1F87E0
0F87C0
0F87C0
0F87C0
ENDCHAR
STARTCHAR 0078
ENCODING 120
SWIDTH 571 0
DWIDTH 16 0
BBX 13 16 1 0
BITMAP
F078
7870
3CF0
3DE0
1FE0
1FC0
0FC0
0780
0780
0FC0
1FC0
1FE0
3DE0
3CF0
7870
F078
ENDCHAR
STARTCHAR 0079
ENCODING 121
SWIDTH 571 0
DWIDTH 16 0
BBX 13 16 1 0
BITMAP
F078
F078
F078
F078
F078
F078
F078
F8F8
FFF8
7FF0
0780
0780
0780
0780
0780
0780
ENDCHAR
STARTCHAR 007A
ENCODING 122
SWIDTH 464 0
DWIDTH 13 0
BBX 11 16 1 0
BITMAP
FFE0
FFE0
01E0
01C0
03C0
0780
0700
0F00
1E00
1E00
3C00
7800
7800
F000
FFE0
FFE0
ENDCHAR
STARTCHAR 007B
ENCODING 123
SWIDTH 285 0
DWIDTH 8 0
BBX 7 22 1 0
BITMAP
7E
78
78
78
78
78
78
78
78
F8
F8
78
78
78
78
78
78
78
78
78
78
7E
ENDCHAR
STARTCHAR 007C
ENCODING 124
SWIDTH 250 0
DWIDTH 7 0
BBX 4 27 2 -3
BITMAP
F0
F0
F0
F0
F0
F0
F0
F0
F0
F0
F0
F0
F0
F0
F0
F0
F0
F0
F0
F0
F0
F0
F0
F0
F0
F0
F0
ENDCHAR
STARTCHAR 007D
ENCODING 125
SWIDTH 285 0
DWIDTH 8 0
BBX 7 22 1 0
BITMAP
FC
3C
3C
3C
3C
3C
3C
3C
3C
3E
3E
3C
3C
3C
3C
3C
3C
3C
3C
3C
3C
FC
ENDCHAR
STARTCHAR 007E
ENCODING 126
SWIDTH 392 0
DWIDTH 11 0
BBX 10 3 0 17
BITMAP
3C40
7FC0
FF80
ENDCHAR
STARTCHAR 00A0
ENCODING 160
SWIDTH 607 0
DWIDTH 17 0
BBX 0 0 0 0
BITMAP
ENDCHAR
STARTCHAR 00A1
ENCODING 161
SWIDTH 285 0
DWIDTH 8 0
BBX 4 22 2 -1
BITMAP
F0
F0
F0
F0
00
F0
F0
F0
F0
F0
F0
F0
F0
F0
F0
F0
F0
F0
F0
F0
F0
F0
ENDCHAR
STARTCHAR 00A2
ENCODING 162
SWIDTH 607 0
DWIDTH 17 0
BBX 10 18 3 1
BITMAP
0600
0600
0600
3FC0
7FC0
F800
F000
F000
F000
F000
F000
F000
F000
F000
FFC0
7FC0
0600
0600
ENDCHAR
STARTCHAR 00A3
ENCODING 163
SWIDTH 821 0
DWIDTH 23 0
BBX 20 22 2 0
BITMAP
003FC0
00FFE0
01FFF0
01E1F0
03C0F0
03C0F0
03C1E0
038000
078000
3FF000
3FF000
3FF000
0F0000
0F0000
0F0000
0F0000
0F0000
1E0000
1E0000
FFFE00
FFFE00
FFFE00
ENDCHAR
STARTCHAR 00A4
ENCODING 164
SWIDTH 535 0
DWIDTH 15 0
BBX 9 13 3 8
BITMAP
E380
7700
7F00
FF80
FF80
8080
8080
8080
FF80
FF80
7E00
7700
E300
ENDCHAR
STARTCHAR 00A5
ENCODING 165
SWIDTH 571 0
DWIDTH 16 0
BBX 13 22 1 0
BITMAP
F078
F078
F078
F078
F078
F078
F8F8
FFF8
7FF0
3FE0
0780
FFF8
FFF8
FFF8
FFF8
FFF8
FFF8
0780
0780
0780
0780
0780
ENDCHAR
STARTCHAR 00A7
ENCODING 167
SWIDTH 678 0
DWIDTH 19 0
BBX 14 22 2 0
BITMAP
03FC
0FFC
0FFC
1E00
1C00
3C00
3800
3FF8
7FF8
7FFC
7078
7078
7878
7FF8
7FF8
7FF0
00F0
00F0
01E0
FFE0
FFC0
FF80
ENDCHAR
STARTCHAR 00A8
ENCODING 168
SWIDTH 321 0
DWIDTH 9 0
BBX 9 4 0 17
BITMAP
F780
F780
F780
F780
ENDCHAR
STARTCHAR 00A9
ENCODING 169
SWIDTH 500 0
DWIDTH 14 0
BBX 12 13 1 8
BITMAP
3FC0
4060
8010
9F90
9810
9810
9810
9810
9810
9810
9F90
4020
3FC0
ENDCHAR
STARTCHAR 00AB
ENCODING 171
SWIDTH 392 0
DWIDTH 11 0
BBX 9 11 1 2
BITMAP
3980
3300
7300
6600
E600
CC00
E600
6600
7300
3300
3980
ENDCHAR
STARTCHAR 00AC
ENCODING 172
SWIDTH 785 0
DWIDTH 22 0
BBX 17 6 2 3
BITMAP
FFFF80
FFFF80
FFFF80
000380
000380
000380
ENDCHAR
STARTCHAR 00AE
ENCODING 174
SWIDTH 500 0
DWIDTH 14 0
BBX 12 13 1 8
BITMAP
3FC0
4060
8010
9F90
9990
9990
9F10
9990
9990
9990
9990
4020
3FC0
ENDCHAR
STARTCHAR 00AF
ENCODING 175
SWIDTH 321 0
DWIDTH 9 0
BBX 8 3 0 18
BITMAP
FF
FF
FF
ENDCHAR
STARTCHAR 00B0
ENCODING 176
SWIDTH 607 0
DWIDTH 17 0
BBX 8 8 4 14
BITMAP
3C
7E
E7
C3
C3
E3
7E
3C
ENDCHAR
STARTCHAR 00B1
ENCODING 177
SWIDTH 607 0
DWIDTH 17 0
BBX 14 21 1 1
BITMAP
0780
0780
0780
0780
0780
FFFC
FFFC
FFFC
FFFC
0780
0780
0780
0780
0780
0000
0000
0000
FFFC
FFFC
FFFC
FFFC
ENDCHAR
STARTCHAR 00B4
ENCODING 180
SWIDTH 250 0
DWIDTH 7 0
BBX 6 5 0 17
BITMAP
3C
38
70
70
E0
ENDCHAR
STARTCHAR 00B5
ENCODING 181
SWIDTH 607 0
DWIDTH 17 0
BBX 13 22 1 0
BITMAP
1FF8
7FF8
FFF8
F800
F000
F000
F000
F000
F000
F078
F078
F8F8
FFF8
7FF8
3F78
0078
0078
0078
00F8
7FF8
7FF0
7FE0
ENDCHAR
STARTCHAR 00B6
ENCODING 182
SWIDTH 607 0
DWIDTH 17 0
BBX 12 26 2 -4
BITMAP
3FC0
7FE0
FFF0
FFF0
FFF0
FFF0
FFF0
FFF0
FFF0
7FF0
3FF0
03F0
00F0
00F0
00F0
00F0
00F0
00F0
00F0
00F0
00F0
00F0
00F0
00F0
00F0
00F0
ENDCHAR
STARTCHAR 00B7
ENCODING 183
SWIDTH 285 0
DWIDTH 8 0
BBX 4 4 2 10
BITMAP
F0
F0
F0
F0
ENDCHAR
STARTCHAR 00B8
ENCODING 184
SWIDTH 285 0
DWIDTH 8 0
BBX 6 6 0 -6
BITMAP
10
30
3C
0C
0C
F8
ENDCHAR
STARTCHAR 00BB
ENCODING 187
SWIDTH 392 0
DWIDTH 11 0
BBX 9 11 1 2
BITMAP
CC00
C600
6600
6300
3300
3380
3380
7300
6600
E600
CC00
ENDCHAR
STARTCHAR 00BF
ENCODING 191
SWIDTH 607 0
DWIDTH 17 0
BBX 11 22 1 0
BITMAP
01E0
01E0
01E0
01E0
0000
01E0
01E0
01E0
01E0
03E0
3FE0
7FC0
FF80
F800
F000
F000
F000
F000
F800
FFE0
7FE0
3FE0
ENDCHAR
STARTCHAR 00C0
ENCODING 192
SWIDTH 607 0
DWIDTH 17 0
BBX 13 28 2 0
BITMAP
1C00
1E00
0E00
0E00
0700
0000
1FC0
7FF0
7FF0
F8F8
F078
F078
F078
F078
F078
F078
FFF8
FFF8
FFF8
F078
F078
F078
F078
F078
F078
F078
F078
F078
ENDCHAR
STARTCHAR 00C1
ENCODING 193
SWIDTH 607 0
DWIDTH 17 0
BBX 13 28 2 0
BITMAP
01E0
01C0
03C0
0380
0300
0000
1FC0
7FF0
7FF0
F8F8
F078
F078
F078
F078
F078
F078
FFF8
FFF8
FFF8
F078
F078
F078
F078
F078
F078
F078
F078
F078
ENDCHAR
STARTCHAR 00C2
ENCODING 194
SWIDTH 607 0
DWIDTH 17 0
BBX 13 27 2 0
BITMAP
0F00
0F80
1DC0
38C0
0000
1FC0
7FF0
7FF0
F8F8
F078
F078
F078
F078
F078
F078
FFF8
FFF8
FFF8
F078
F078
F078
F078
F078
F078
F078
F078
F078
ENDCHAR
STARTCHAR 00C3
ENCODING 195
SWIDTH 607 0
DWIDTH 17 0
BBX 13 27 2 0
BITMAP
1E20
3FE0
3FC0
0000
0000
1FC0
7FF0
7FF0
F8F8
F078
F078
F078
F078
F078
F078
FFF8
FFF8
FFF8
F078
F078
F078
F078
F078
F078
F078
F078
F078
ENDCHAR
STARTCHAR 00C4
ENCODING 196
SWIDTH 607 0
DWIDTH 17 0
BBX 13 27 2 0
BITMAP
3DE0
3DE0
3DE0
3DE0
0000
1FC0
7FF0
7FF0
F8F8
F078
F078
F078
F078
F078
F078
FFF8
FFF8
FFF8
F078
F078
F078
F078
F078
F078
F078
F078
F078
ENDCHAR
STARTCHAR 00C5
ENCODING 197
SWIDTH 607 0
DWIDTH 17 0
BBX 13 28 2 0
BITMAP
0700
0D80
0880
0C80
0700
0000
1FC0
7FF0
7FF0
F8F8
F078
F078
F078
F078
F078
F078
FFF8
FFF8
FFF8
F078
F078
F078
F078
F078
F078
F078
F078
F078
ENDCHAR
STARTCHAR 00C6
ENCODING 198
SWIDTH 857 0
DWIDTH 24 0
BBX 21 22 2 0
BITMAP
1FFFF8
7FFFF8
7FFFF8
F8FC00
F07800
F07800
F07800
F07800
F07800
FFFFC0
FFFFC0
FFFFC0
F07800
F07800
F07800
F07800
F07800
F07800
F07C00
F07FF8
F03FF8
F01FF8
ENDCHAR
STARTCHAR 00C7
ENCODING 199
SWIDTH 500 0
DWIDTH 14 0
BBX 12 28 1 -6
BITMAP
3FF0
7FF0
7FF0
F800
F000
F000
F000
F000
F000
F000
F000
F000
F000
F000
F000
F000
F000
F800
FFF0
7FF0
7FF0
0300
0200
03C0
00C0
00C0
01C0
0F00
ENDCHAR
STARTCHAR 00C8
ENCODING 200
SWIDTH 500 0
DWIDTH 14 0
BBX 12 28 1 0
BITMAP
3C00
1E00
0E00
0E00
0700
0000
3FF0
7FF0
7FF0
F800
F000
F000
F000
F000
F000
FF80
FF80
FF80
F000
F000
F000
F000
F000
F000
F800
FFF0
7FF0
3FF0
ENDCHAR
STARTCHAR 00C9
ENCODING 201
SWIDTH 500 0
DWIDTH 14 0
BBX 12 28 1 0
BITMAP
01C0
03C0
0380
0780
0700
0000
3FF0
7FF0
7FF0
F800
F000
F000
F000
F000
F000
FF80
FF80
FF80
F000
F000
F000
F000
F000
F000
F800
FFF0
7FF0
3FF0
ENDCHAR
STARTCHAR 00CA
ENCODING 202
SWIDTH 500 0
DWIDTH 14 0
BBX 12 27 1 0
BITMAP
0780
0F80
1DC0
18E0
0000
3FF0
7FF0
7FF0
F800
F000
F000
F000
F000
F000
FF80
FF80
FF80
F000
F000
F000
F000
F000
F000
F800
FFF0
7FF0
3FF0
ENDCHAR
STARTCHAR 00CB
ENCODING 203
SWIDTH 500 0
DWIDTH 14 0
BBX 12 27 1 0
BITMAP
3CF0
3CF0
3CF0
3CF0
0000
3FF0
7FF0
7FF0
F800
F000
F000
F000
F000
F000
FFC0
FFC0
FFC0
F000
F000
F000
F000
F000
F000
F800
FFF0
7FF0
3FF0
ENDCHAR
STARTCHAR 00CC
ENCODING 204
SWIDTH 285 0
DWIDTH 8 0
BBX 5 28 2 0
BITMAP
F0
70
78
38
18
00
F0
F0
F0
F0
F0
F0
F0
F0
F0
F0
F0
F0
F0
F0
F0
F0
F0
F0
F0
F0
F0
F0
ENDCHAR
STARTCHAR 00CD
ENCODING 205
SWIDTH 285 0
DWIDTH 8 0
BBX 6 28 2 0
BITMAP
3C
38
38
70
70
00
F0
F0
F0
F0
F0
F0
F0
F0
F0
F0
F0
F0
F0
F0
F0
F0
F0
F0
F0
F0
F0
F0
ENDCHAR
STARTCHAR 00CE
ENCODING 206
SWIDTH 285 0
DWIDTH 8 0
BBX 9 27 2 0
BITMAP
1C00
3E00
7700
E380
0000
F000
F000
F000
F000
F000
F000
F000
F000
F000
F000
F000
F000
F000
F000
F000
F000
F000
F000
F000
F000
F000
F000
ENDCHAR
STARTCHAR 00CF
ENCODING 207
SWIDTH 285 0
DWIDTH 8 0
BBX 9 27 2 0
BITMAP
F780
F780
F780
F780
0000
F000
F000
F000
F000
F000
F000
F000
F000
F000
F000
F000
F000
F000
F000
F000
F000
F000
F000
F000
F000
F000
F000
ENDCHAR
STARTCHAR 00D1
ENCODING 209
SWIDTH 607 0
DWIDTH 17 0
BBX 13 27 2 0
BITMAP
1E20
3FE0
3FC0
0000
0000
1FC0
7FF0
7FF0
F8F8
F078
F078
F078
F078
F078
F078
F078
F078
F078
F078
F078
F078
F078
F078
F078
F078
F078
F078
ENDCHAR
STARTCHAR 00D2
ENCODING 210
SWIDTH 607 0
DWIDTH 17 0
BBX 14 28 1 0
BITMAP
1E00
1E00
0E00
0700
0700
0000
1FE0
7FF8
7FF8
F87C
F03C
F03C
F03C
F03C
F03C
F03C
F03C
F03C
F03C
F03C
F03C
F03C
F03C
F03C
F87C
7FF8
7FF8
1FE0
ENDCHAR
STARTCHAR 00D3
ENCODING 211
SWIDTH 607 0
DWIDTH 17 0
BBX 14 28 1 0
BITMAP
01E0
01C0
03C0
0380
0700
0000
1FE0
7FF8
7FF8
F87C
F03C
F03C
F03C
F03C
F03C
F03C
F03C
F03C
F03C
F03C
F03C
F03C
F03C
F03C
F87C
7FF8
7FF8
1FE0
ENDCHAR
STARTCHAR 00D4
ENCODING 212
SWIDTH 607 0
DWIDTH 17 0
BBX 14 27 1 0
BITMAP
0780
0FC0
0FC0
18E0
0000
1FE0
7FF8
7FF8
F87C
F03C
F03C
F03C
F03C
F03C
F03C
F03C
F03C
F03C
F03C
F03C
F03C
F03C
F03C
F87C
7FF8
7FF8
1FE0
ENDCHAR
STARTCHAR 00D5
ENCODING 213
SWIDTH 607 0
DWIDTH 17 0
BBX 14 27 1 0
BITMAP
0E30
3FE0
3FC0
0000
0000
1FE0
7FF8
7FF8
F87C
F03C
F03C
F03C
F03C
F03C
F03C
F03C
F03C
F03C
F03C
F03C
F03C
F03C
F03C
F87C
7FF8
7FF8
1FE0
ENDCHAR
STARTCHAR 00D6
ENCODING 214
SWIDTH 607 0
DWIDTH 17 0
BBX 14 27 1 0
BITMAP
3CF0
3CF0
3CF0
3CF0
0000
1FE0
7FF8
7FF8
F87C
F03C
F03C
F03C
F03C
F03C
F03C
F03C
F03C
F03C
F03C
F03C
F03C
F03C
F03C
F87C
7FF8
7FF8
1FE0
ENDCHAR
STARTCHAR 00D8
ENCODING 216
SWIDTH 607 0
DWIDTH 17 0
BBX 14 28 1 -3
BITMAP
0018
0030
0030
1FF0
7FF8
7FF8
F8FC
F0FC
F0FC
F1FC
F1BC
F1BC
F3BC
F33C
F33C
F73C
F63C
F63C
FE3C
FC3C
FC3C
F87C
7FF8
7FF8
3FE0
3000
3000
6000
ENDCHAR
STARTCHAR 00D9
ENCODING 217
SWIDTH 607 0
DWIDTH 17 0
BBX 13 28 2 0
BITMAP
1C00
1E00
0E00
0E00
0700
0000
F078
F078
F078
F078
F078
F078
F078
F078
F078
F078
F078
F078
F078
F078
F078
F078
F078
F078
F8F8
FFF8
7FF0
3FE0
ENDCHAR
STARTCHAR 00DA
ENCODING 218
SWIDTH 607 0
DWIDTH 17 0
BBX 13 28 2 0
BITMAP
01E0
01C0
0380
0380
0700
0000
F078
F078
F078
F078
F078
F078
F078
F078
F078
F078
F078
F078
F078
F078
F078
F078
F078
F078
F8F8
FFF8
7FF0
3FE0
ENDCHAR
STARTCHAR 00DB
ENCODING 219
SWIDTH 607 0
DWIDTH 17 0
BBX 13 27 2 0
BITMAP
0700
0F80
1DC0
38E0
0000
F078
F078
F078
F078
F078
F078
F078
F078
F078
F078
F078
F078
F078
F078
F078
F078
F078
F078
F8F8
FFF8
7FF0
3FE0
ENDCHAR
STARTCHAR 00DC
ENCODING 220
SWIDTH 607 0
DWIDTH 17 0
BBX 13 27 2 0
BITMAP
3DE0
3DE0
3DE0
3DE0
0000
F078
F078
F078
F078
F078
F078
F078
F078
F078
F078
F078
F078
F078
F078
F078
F078
F078
F078
F8F8
FFF8
7FF0
3FE0
ENDCHAR
STARTCHAR 00DD
ENCODING 221
SWIDTH 571 0
DWIDTH 16 0
BBX 0 0 0 0
BITMAP
ENDCHAR
STARTCHAR 00DF
ENCODING 223
SWIDTH 571 0
DWIDTH 16 0
BBX 12 25 2 -3
BITMAP
1FC0
7FE0
7FF0
F9F0
F0F0
F0F0
F0F0
F0F0
F1F0
F7E0
F7C0
F7E0
F1F0
F0F0
F0F0
F0F0
F0F0
F0F0
F1F0
F7F0
F7E0
F780
F000
F000
F000
ENDCHAR
STARTCHAR 00E0
ENCODING 224
SWIDTH 607 0
DWIDTH 17 0
BBX 13 22 2 0
BITMAP
1C00
1E00
0E00
0F00
0700
0000
3FE0
7FF0
F8F8
F078
F078
F078
F078
FFF8
FFF8
F078
F078
F078
F078
F078
F078
F078
ENDCHAR
STARTCHAR 00E1
ENCODING 225
SWIDTH 607 0
DWIDTH 17 0
BBX 13 22 2 0
BITMAP
01C0
03C0
0380
0700
0700
0000
3FE0
7FF0
F8F8
F078
F078
F078
F078
FFF8
FFF8
F078
F078
F078
F078
F078
F078
F078
ENDCHAR
STARTCHAR 00E2
ENCODING 226
SWIDTH 607 0
DWIDTH 17 0
BBX 13 22 2 0
BITMAP
0F00
0F80
1F80
19C0
30C0
0000
3FE0
7FF0
F8F8
F078
F078
F078
F078
FFF8
FFF8
F078
F078
F078
F078
F078
F078
F078
ENDCHAR
STARTCHAR 00E3
ENCODING 227
SWIDTH 607 0
DWIDTH 17 0
BBX 13 21 2 0
BITMAP
1E20
3FE0
7FC0
0000
0000
3FE0
7FF0
F8F8
F078
F078
F078
F078
FFF8
FFF8
F078
F078
F078
F078
F078
F078
F078
ENDCHAR
STARTCHAR 00E4
ENCODING 228
SWIDTH 607 0
DWIDTH 17 0
BBX 13 21 2 0
BITMAP
3DE0
3DE0
3DE0
3DE0
0000
3FE0
7FF0
F8F8
F078
F078
F078
F078
FFF8
FFF8
F078
F078
F078
F078
F078
F078
F078
ENDCHAR
STARTCHAR 00E5
ENCODING 229
SWIDTH 607 0
DWIDTH 17 0
BBX 13 22 2 0
BITMAP
0600
0900
0900
0900
0600
0000
3FE0
7FF0
F8F8
F078
F078
F078
F078
FFF8
FFF8
F078
F078
F078
F078
F078
F078
F078
ENDCHAR
STARTCHAR 00E6
ENCODING 230
SWIDTH 857 0
DWIDTH 24 0
BBX 21 16 2 0
BITMAP
3FFFF8
7FFFF8
F8FC00
F07800
F07800
F07800
F07800
FFFFC0
FFFFC0
F07800
F07800
F07800
F07800
F07C00
F03FF8
F03FF8
ENDCHAR
STARTCHAR 00E7
ENCODING 231
SWIDTH 500 0
DWIDTH 14 0
BBX 12 22 1 -6
BITMAP
3FF0
7FF0
FC00
F000
F000
F000
F000
F000
F000
F000
F000
F000
F000
F800
7FF0
7FF0
0100
0300
03C0
00C0
00C0
0F80
ENDCHAR
STARTCHAR 00E8
ENCODING 232
SWIDTH 500 0
DWIDTH 14 0
BBX 12 22 1 0
BITMAP
3C00
1E00
0E00
0E00
0700
0000
3FF0
7FF0
FC00
F000
F000
F000
F000
FF80
FF80
F000
F000
F000
F000
F800
7FF0
7FF0
ENDCHAR
STARTCHAR 00E9
ENCODING 233
SWIDTH 500 0
DWIDTH 14 0
BBX 12 22 1 0
BITMAP
03C0
0380
0780
0700
0600
0000
3FF0
7FF0
FC00
F000
F000
F000
F000
FF80
FF80
F000
F000
F000
F000
F800
7FF0
7FF0
ENDCHAR
STARTCHAR 00EA
ENCODING 234
SWIDTH 500 0
DWIDTH 14 0
BBX 12 22 1 0
BITMAP
0700
0F80
0FC0
1CC0
3860
0000
3FF0
7FF0
FC00
F000
F000
F000
F000
FF80
FF80
F000
F000
F000
F000
F800
7FF0
7FF0
ENDCHAR
STARTCHAR 00EB
ENCODING 235
SWIDTH 500 0
DWIDTH 14 0
BBX 12 21 1 0
BITMAP
3CF0
3CF0
3CF0
3CF0
0000
3FF0
7FF0
FC00
F000
F000
F000
F000
FFC0
FFC0
F000
F000
F000
F000
F800
7FF0
7FF0
ENDCHAR
STARTCHAR 00EC
ENCODING 236
SWIDTH 285 0
DWIDTH 8 0
BBX 6 22 2 0
BITMAP
F0
70
38
38
1C
00
F0
F0
F0
F0
F0
F0
F0
F0
F0
F0
F0
F0
F0
F0
F0
F0
ENDCHAR
STARTCHAR 00ED
ENCODING 237
SWIDTH 285 0
DWIDTH 8 0
BBX 6 22 2 0
BITMAP
3C
38
78
70
E0
00
F0
F0
F0
F0
F0
F0
F0
F0
F0
F0
F0
F0
F0
F0
F0
F0
ENDCHAR
STARTCHAR 00EE
ENCODING 238
SWIDTH 285 0
DWIDTH 8 0
BBX 9 22 2 0
BITMAP
1C00
3E00
7F00
7700
E380
0000
F000
F000
F000
F000
F000
F000
F000
F000
F000
F000
F000
F000
F000
F000
F000
F000
ENDCHAR
STARTCHAR 00EF
ENCODING 239
SWIDTH 285 0
DWIDTH 8 0
BBX 9 21 2 0
BITMAP
F780
F780
F780
F780
0000
F000
F000
F000
F000
F000
F000
F000
F000
F000
F000
F000
F000
F000
F000
F000
F000
ENDCHAR
STARTCHAR 00F1
ENCODING 241
SWIDTH 607 0
DWIDTH 17 0
BBX 13 21 2 0
BITMAP
1E20
3FE0
3FC0
0000
0000
3FE0
7FF0
F8F8
F078
F078
F078
F078
F078
F078
F078
F078
F078
F078
F078
F078
F078
ENDCHAR
STARTCHAR 00F2
ENCODING 242
SWIDTH 607 0
DWIDTH 17 0
BBX 14 22 1 0
BITMAP
1C00
1E00
0E00
0700
0700
0000
3FF0
7FF8
F87C
F03C
F03C
F03C
F03C
F03C
F03C
F03C
F03C
F03C
F03C
F87C
7FF8
3FF0
ENDCHAR
STARTCHAR 00F3
ENCODING 243
SWIDTH 607 0
DWIDTH 17 0
BBX 14 22 1 0
BITMAP
01E0
01C0
0380
0380
0700
0000
3FF0
7FF8
F87C
F03C
F03C
F03C
F03C
F03C
F03C
F03C
F03C
F03C
F03C
F87C
7FF8
3FF0
ENDCHAR
STARTCHAR 00F4
ENCODING 244
SWIDTH 607 0
DWIDTH 17 0
BBX 14 22 1 0
BITMAP
0780
0F80
0FC0
1CC0
3860
0000
3FF0
7FF8
F87C
F03C
F03C
F03C
F03C
F03C
F03C
F03C
F03C
F03C
F03C
F87C
7FF8
3FF0
ENDCHAR
STARTCHAR 00F5
ENCODING 245
SWIDTH 607 0
DWIDTH 17 0
BBX 14 21 1 0
BITMAP
0E30
3FE0
3FC0
0000
0000
3FF0
7FF8
F87C
F03C
F03C
F03C
F03C
F03C
F03C
F03C
F03C
F03C
F03C
F87C
7FF8
3FF0
ENDCHAR
STARTCHAR 00F6
ENCODING 246
SWIDTH 607 0
DWIDTH 17 0
BBX 15 21 1 0
BITMAP
3CF0
3CF0
3CF0
3CF0
0000
1FF8
7FFC
F83E
F01E
F01E
F01E
F01E
F01E
F01E
F01E
F01E
F01E
F01E
F83E
7FFC
3FF8
ENDCHAR
STARTCHAR 00F7
ENCODING 247
SWIDTH 607 0
DWIDTH 17 0
BBX 14 16 1 0
BITMAP
0780
0780
0780
0780
0000
0000
FFFC
FFFC
FFFC
FFFC
0000
0000
0780
0780
0780
0780
ENDCHAR
STARTCHAR 00F8
ENCODING 248
SWIDTH 607 0
DWIDTH 17 0
BBX 14 20 1 -2
BITMAP
0038
0030
3FF0
7FF8
F87C
F0FC
F0FC
F1BC
F1BC
F33C
F33C
F63C
F63C
FC3C
FC3C
F87C
7FF8
3FF0
3000
7000
ENDCHAR
STARTCHAR 00F9
ENCODING 249
SWIDTH 607 0
DWIDTH 17 0
BBX 13 22 2 0
BITMAP
1C00
0E00
0E00
0700
0700
0000
F078
F078
F078
F078
F078
F078
F078
F078
F078
F078
F078
F078
F078
F8F8
7FF0
3FE0
ENDCHAR
STARTCHAR 00FA
ENCODING 250
SWIDTH 607 0
DWIDTH 17 0
BBX 13 22 2 0
BITMAP
01C0
03C0
0380
0300
0700
0000
F078
F078
F078
F078
F078
F078
F078
F078
F078
F078
F078
F078
F078
F8F8
7FF0
3FE0
ENDCHAR
STARTCHAR 00FB
ENCODING 251
SWIDTH 607 0
DWIDTH 17 0
BBX 13 22 2 0
BITMAP
0700
0F80
1F80
19C0
30E0
0000
F078
F078
F078
F078
F078
F078
F078
F078
F078
F078
F078
F078
F078
F8F8
7FF0
3FE0
ENDCHAR
STARTCHAR 00FC
ENCODING 252
SWIDTH 607 0
DWIDTH 17 0
BBX 13 21 2 0
BITMAP
3DE0
3DE0
3DE0
3DE0
0000
F078
F078
F078
F078
F078
F078
F078
F078
F078
F078
F078
F078
F078
F8F8
FFF8
3FE0
ENDCHAR
STARTCHAR 00FF
ENCODING 255
SWIDTH 571 0
DWIDTH 16 0
BBX 14 21 1 -1
BITMAP
3CF0
3CF0
3CF0
3CF0
0000
F03C
F03C
F03C
F03C
F03C
F03C
F03C
F87C
FFFC
7FF0
0780
0780
0780
0780
0780
0780
ENDCHAR
STARTCHAR 0131
ENCODING 305
SWIDTH 285 0
DWIDTH 8 0
BBX 4 16 2 0
BITMAP
F0
F0
F0
F0
F0
F0
F0
F0
F0
F0
F0
F0
F0
F0
F0
F0
ENDCHAR
STARTCHAR 0152
ENCODING 338
SWIDTH 857 0
DWIDTH 24 0
BBX 20 22 1 0
BITMAP
1FFFF0
7FFFF0
7FFFF0
F8FC00
F07800
F07800
F07800
F07800
F07800
F07FC0
F07FC0
F07FC0
F07800
F07800
F07800
F07800
F07800
F07800
F8FC00
7FFFF0
7FFFF0
3FFFF0
ENDCHAR
STARTCHAR 0153
ENCODING 339
SWIDTH 857 0
DWIDTH 24 0
BBX 20 16 1 0
BITMAP
3FFFF0
7FFFF0
F8FC00
F07800
F07800
F07800
F07800
F07FC0
F07FC0
F07800
F07800
F07800
F07800
F8FC00
7FFFF0
3FFFF0
ENDCHAR
STARTCHAR 0160
ENCODING 352
SWIDTH 571 0
DWIDTH 16 0
BBX 0 0 0 0
BITMAP
ENDCHAR
STARTCHAR 0161
ENCODING 353
SWIDTH 571 0
DWIDTH 16 0
BBX 0 0 0 0
BITMAP
ENDCHAR
STARTCHAR 0178
ENCODING 376
SWIDTH 571 0
DWIDTH 16 0
BBX 14 27 1 0
BITMAP
3CF0
3CF0
3CF0
3CF0
0000
F03C
F03C
F03C
F03C
F03C
F03C
F03C
F03C
F03C
F03C
F87C
FFFC
7FF8
3FF0
0780
0780
0780
0780
0780
0780
0780
0780
ENDCHAR
STARTCHAR 017D
ENCODING 381
SWIDTH 464 0
DWIDTH 13 0
BBX 0 0 0 0
BITMAP
ENDCHAR
STARTCHAR 017E
ENCODING 382
SWIDTH 464 0
DWIDTH 13 0
BBX 0 0 0 0
BITMAP
ENDCHAR
STARTCHAR 02C6
ENCODING 710
SWIDTH 357 0
DWIDTH 10 0
BBX 9 5 0 17
BITMAP
1E00
3E00
3F00
7380
E180
ENDCHAR
STARTCHAR 02C7
ENCODING 711
SWIDTH 357 0
DWIDTH 10 0
BBX 8 5 1 17
BITMAP
C3
EE
7E
3C
38
ENDCHAR
STARTCHAR 02D8
ENCODING 728
SWIDTH 285 0
DWIDTH 8 0
BBX 8 5 0 17
BITMAP
C3
E3
7F
7E
1C
ENDCHAR
STARTCHAR 02D9
ENCODING 729
SWIDTH 285 0
DWIDTH 8 0
BBX 4 3 2 17
BITMAP
F0
F0
F0
ENDCHAR
STARTCHAR 02DA
ENCODING 730
SWIDTH 250 0
DWIDTH 7 0
BBX 4 5 1 17
BITMAP
60
90
90
90
60
ENDCHAR
STARTCHAR 02DB
ENCODING 731
SWIDTH 285 0
DWIDTH 8 0
BBX 5 6 0 -6
BITMAP
10
60
60
C0
C0
78
ENDCHAR
STARTCHAR 02DC
ENCODING 732
SWIDTH 392 0
DWIDTH 11 0
BBX 10 3 0 17
BITMAP
3C40
7FC0
FF80
ENDCHAR
STARTCHAR 02DD
ENCODING 733
SWIDTH 392 0
DWIDTH 11 0
BBX 11 5 0 17
BITMAP
3DE0
7BC0
7380
7380
E700
ENDCHAR
STARTCHAR 2013
ENCODING 8211
SWIDTH 607 0
DWIDTH 17 0
BBX 13 3 2 6
BITMAP
FFF8
FFF8
FFF8
ENDCHAR
STARTCHAR 2014
ENCODING 8212
SWIDTH 1000 0
DWIDTH 28 0
BBX 23 3 2 6
BITMAP
FFFFFE
FFFFFE
FFFFFE
ENDCHAR
STARTCHAR 2018
ENCODING 8216
SWIDTH 285 0
DWIDTH 8 0
BBX 4 7 2 15
BITMAP
30
70
C0
F0
F0
F0
F0
ENDCHAR
STARTCHAR 2019
ENCODING 8217
SWIDTH 285 0
DWIDTH 8 0
BBX 4 6 2 15
BITMAP
F0
F0
F0
F0
70
E0
ENDCHAR
STARTCHAR 201A
ENCODING 8218
SWIDTH 285 0
DWIDTH 8 0
BBX 4 6 2 -2
BITMAP
F0
F0
F0
F0
60
E0
ENDCHAR
STARTCHAR 201C
ENCODING 8220
SWIDTH 500 0
DWIDTH 14 0
BBX 9 7 2 15
BITMAP
3180
7380
C600
F780
F780
F780
F780
ENDCHAR
STARTCHAR 201D
ENCODING 8221
SWIDTH 500 0
DWIDTH 14 0
BBX 10 6 2 15
BITMAP
F3C0
F3C0
F3C0
F3C0
71C0
E380
ENDCHAR
STARTCHAR 201E
ENCODING 8222
SWIDTH 500 0
DWIDTH 14 0
BBX 10 6 2 -2
BITMAP
F3C0
F3C0
F3C0
F3C0
6180
E380
ENDCHAR
STARTCHAR 2020
ENCODING 8224
SWIDTH 428 0
DWIDTH 12 0
BBX 12 26 0 -3
BITMAP
0600
0F00
0F00
0F00
0F00
0F00
0F00
FFF0
FFF0
FFF0
FFF0
0F00
0F00
0F00
0F00
0F00
0F00
0F00
0F00
0F00
0F00
0F00
0F00
0F00
0F00
0600
ENDCHAR
STARTCHAR 2022
ENCODING 8226
SWIDTH 607 0
DWIDTH 17 0
BBX 10 10 3 5
BITMAP
1F00
3F80
7FC0
7FC0
FFC0
FFC0
7FC0
7FC0
3F80
1E00
ENDCHAR
STARTCHAR 2026
ENCODING 8230
SWIDTH 1000 0
DWIDTH 28 0
BBX 23 4 2 1
BITMAP
F0781E
F0781E
F0781E
F0781E
ENDCHAR
STARTCHAR 2030
ENCODING 8240
SWIDTH 1071 0
DWIDTH 30 0
BBX 28 22 1 0
BITMAP
7F030000
F7860000
E3840000
E38C0000
E3980000
E3980000
E3B00000
E3B00000
E3E00000
7F600000
00C00000
00C00000
01BF8FE0
01F1DCF0
0371DC70
0371DC70
0671DC70
0671DC70
0C71DC70
0871DC70
187BDEF0
303F8FE0
ENDCHAR
STARTCHAR 2039
ENCODING 8249
SWIDTH 250 0
DWIDTH 7 0
BBX 5 11 1 2
BITMAP
18
30
30
60
E0
C0
60
60
30
30
18
ENDCHAR
STARTCHAR 203A
ENCODING 8250
SWIDTH 250 0
DWIDTH 7 0
BBX 5 11 1 2
BITMAP
C0
E0
60
70
30
38
30
30
60
60
C0
ENDCHAR
STARTCHAR 2044
ENCODING 8260
SWIDTH 428 0
DWIDTH 12 0
BBX 14 22 -1 0
BITMAP
000C
0018
0018
0030
0030
0060
00C0
00C0
0180
0180
0300
0300
0600
0600
0C00
0C00
1800
3000
3000
6000
6000
C000
ENDCHAR
STARTCHAR 2122
ENCODING 8482
SWIDTH 607 0
DWIDTH 17 0
BBX 13 7 2 15
BITMAP
F7F0
4D98
4D98
4D98
4D98
4D98
4D98
ENDCHAR
STARTCHAR 2202
ENCODING 8706
SWIDTH 607 0
DWIDTH 17 0
BBX 14 22 1 0
BITMAP
1FE0
7FF8
7FF8
F87C
F03C
F03C
F03C
F03C
F03C
FFFC
FFFC
FFFC
F03C
F03C
F03C
F03C
F03C
F03C
F87C
7FF8
7FF8
1FE0
ENDCHAR
STARTCHAR 220F
ENCODING 8719
SWIDTH 571 0
DWIDTH 16 0
BBX 0 0 0 0
BITMAP
ENDCHAR
STARTCHAR 2211
ENCODING 8721
SWIDTH 571 0
DWIDTH 16 0
BBX 12 18 2 -3
BITMAP
3FC0
7FF0
F9F0
F0F0
F0F0
F7F0
F7C0
F7E0
F1F0
F0F0
F0F0
F0F0
F0F0
F1F0
F7E0
F7C0
F000
F000
ENDCHAR
STARTCHAR 2260
ENCODING 8800
SWIDTH 571 0
DWIDTH 16 0
BBX 12 18 2 -3
BITMAP
3FC0
7FF0
F9F0
F0F0
F0F0
F7F0
F7C0
F7E0
F1F0
F0F0
F0F0
F0F0
F0F0
F1F0
F7E0
F7C0
F000
F000
ENDCHAR
ENDFONT
